<?xml version="1.0" encoding="UTF-8"?>
<svg version="1.1" xmlns="http://www.w3.org/2000/svg" width="512" height="512">
<path d="M0 0 C1.79630859 0.49306641 1.79630859 0.49306641 3.62890625 0.99609375 C19.63573254 5.81984015 33.47001494 14.02229257 46 25 C46.81855469 25.71671875 47.63710938 26.4334375 48.48046875 27.171875 C70.14625197 47.57222309 80.19891618 75.59687758 82.18359375 104.69140625 C83.03974792 134.45535418 71.26516933 162.33659415 51.28125 183.9765625 C41.5656026 194.21356108 30.5809584 201.57085292 18 208 C18.680625 208.268125 19.36125 208.53625 20.0625 208.8125 C27.04989387 211.63719114 33.77227766 214.79908474 40.47851562 218.23242188 C42.31216485 219.16848057 44.15577359 220.08495666 46 221 C46.77472656 221.44988281 47.54945313 221.89976562 48.34765625 222.36328125 C51.91263852 223.21908701 54.53855662 222.35402953 58.07373047 221.54199219 C82.75614244 216.97041246 108.24809589 222.42239375 129.25 235.75 C151.39420183 251.34408514 166.78868375 273.78986422 171.52734375 300.6328125 C175.15070286 329.4684256 168.63667457 354.47494261 152 378 C150.68303978 379.67963429 149.35522841 381.35108778 148 383 C149.98 385.31 151.96 387.62 154 390 C154.78375 389.67 155.5675 389.34 156.375 389 C162.19040962 387.39574907 167.58919665 386.84281439 173.125 389.5 C178.97489692 394.58686689 184.17151726 400.12685645 189.21875 406 C191.0742521 408.08337078 193.01223101 410.04281207 195 412 C197.59982183 414.55990134 200.06268398 417.1677954 202.4375 419.9375 C205.00665271 422.92801716 207.69317256 425.73116684 210.5 428.5 C213.99611108 431.95441981 217.32346228 435.48802962 220.49609375 439.2421875 C221.72433816 440.67779785 223.03904315 442.03904315 224.375 443.375 C226.817305 447.32026193 227.36707553 451.39487062 227 456 C224.30583128 464.03668696 218.74636264 469.96746488 212 475 C207.00101065 477.38652316 203.47738608 477.41173055 198.1875 475.9375 C194.86541344 473.91819248 192.70727866 471.78171903 190 469 C188.97337634 467.9810315 187.94463975 466.96418844 186.9140625 465.94921875 C181.62968445 460.71579748 176.42250862 455.49762126 171.60546875 449.82421875 C169.19218534 447.08211814 166.5705291 444.56175172 163.96875 442 C161.44879163 439.44004229 159.12933741 436.734467 156.79296875 434.0078125 C154.88162153 431.86743675 152.86964794 429.87511057 150.8125 427.875 C145.99237532 423.12026461 142.13652329 418.68612895 141.875 411.625 C142 408 142 408 142.9375 405.5 C143.27048056 402.92759804 143.27048056 402.92759804 141.5078125 401.13671875 C139.72573036 399.35105813 137.9073458 397.65049624 136 396 C133.48114754 397.18980971 131.13572656 398.51814955 128.7421875 399.953125 C105.86294475 413.65794391 80.17476956 418.64770883 53.9140625 413.04296875 C39.16423164 409.31282783 25.63031993 402.8534655 14 393 C13.175 392.3090625 12.35 391.618125 11.5 390.90625 C-6.15110985 375.62297196 -18.39195437 353.33393034 -21 330 C-21.76827033 315.28801916 -21.74729631 301.04812173 -17 287 C-16.78037598 286.34467285 -16.56075195 285.6893457 -16.33447266 285.01416016 C-11.68500286 271.57248703 -4.31522054 260.6915234 5 250 C5.54011719 249.37480469 6.08023438 248.74960937 6.63671875 248.10546875 C13.00473537 241.25624181 21.26187459 236.15875027 29 231 C-5.49671695 215.99470159 -42.45434318 213.65645098 -77.9140625 227.3125 C-93.97966276 233.80922342 -108.87398644 242.45375433 -121.32128906 254.59692383 C-124.81863839 258 -124.81863839 258 -127 258 C-127.23589844 258.55816406 -127.47179687 259.11632812 -127.71484375 259.69140625 C-129.30570897 262.5491611 -131.29606605 264.57884808 -133.5625 266.9375 C-158.7168222 293.94496225 -171.64763578 331.07979954 -173.61108398 367.43164062 C-173.89147064 372.22607459 -174.37203521 376.47787559 -176 381 C-179.7205836 383.48038907 -181.59796571 383.46337203 -186 383 C-188.1953125 381.66796875 -188.1953125 381.66796875 -190 379 C-190.59220444 375.30794447 -190.51804709 371.66845281 -190.4375 367.9375 C-190.41550537 366.32427856 -190.41550537 366.32427856 -190.39306641 364.6784668 C-189.37621634 320.96362916 -169.79339076 281.05060983 -141 249 C-140.35933594 248.27425781 -139.71867187 247.54851562 -139.05859375 246.80078125 C-122.72340292 229.36926889 -100.80362595 217.76414957 -78.64794922 209.67333984 C-76.99160736 209.12064748 -76.99160736 209.12064748 -76 208 C-77.02738281 207.45472656 -78.05476563 206.90945312 -79.11328125 206.34765625 C-87.82120692 201.64425904 -95.6653658 196.72341468 -103 190 C-103.91265625 189.16855469 -104.8253125 188.33710938 -105.765625 187.48046875 C-127.06159525 167.16601668 -139.11352602 139.40242028 -140 110 C-140.4646035 79.32962554 -128.84724221 50.4894384 -107.56640625 28.52001953 C-80.34060247 1.06364492 -37.42283801 -10.99101188 0 0 Z M-93 37 C-93.71671875 37.64710937 -94.4334375 38.29421875 -95.171875 38.9609375 C-109.86154729 52.9104325 -121.86585386 75.21033121 -123.17700195 95.77636719 C-123.80106771 126.53709033 -117.78037543 150.61811156 -96.42749023 173.68359375 C-79.9731531 190.6135223 -56.61340966 200.89660404 -33.09130859 201.29272461 C-5.2355828 201.45456034 17.90885382 193.39538371 38.25 173.77734375 C56.04740877 155.80297211 65.63393799 131.91861936 66.1875 106.75 C65.81301398 80.04914712 54.72721825 56.09019025 35.86010742 37.37207031 C17.54713846 20.0172217 -7.04563392 11.54408899 -32.08984375 11.78515625 C-54.78915326 13.03237106 -76.20451814 21.66735043 -93 37 Z M12.48828125 265.84765625 C-2.17733909 284.34775117 -6.8924403 305.75424336 -5 329 C-2.64616932 348.51309291 8.65890467 367.70745557 23.66015625 380.23046875 C41.87507189 394.00568875 63.35941869 401.12172065 86.1875 398.3125 C107.5004591 394.65954106 127.60826058 384.33327691 140.53515625 366.5859375 C149.98015335 353.15347801 156.02646863 338.55003323 157 322 C157.04125 321.319375 157.0825 320.63875 157.125 319.9375 C157.75100176 298.65344029 149.93099481 278.8365283 136 263 C135.33355469 262.23816406 134.66710937 261.47632813 133.98046875 260.69140625 C120.07428098 245.80481934 99.79289878 236.99230766 79.5625 235.796875 C52.89324639 235.44596377 30.09495686 245.88612201 12.48828125 265.84765625 Z M164 405 C162.42159428 406.55705194 162.42159428 406.55705194 160.875 408.5 C160.33617187 409.1496875 159.79734375 409.799375 159.2421875 410.46875 C158.83226562 410.9740625 158.42234375 411.479375 158 412 C158.85722656 412.845625 159.71445312 413.69125 160.59765625 414.5625 C166.00043772 419.91469215 171.33857815 425.24025961 176.26171875 431.04296875 C179.21359834 434.36632082 182.42492394 437.4318735 185.5859375 440.5546875 C188.27777224 443.281368 190.77299251 446.12861892 193.26171875 449.0390625 C196.34539793 452.5177298 199.67551028 455.75322563 203 459 C205.8605891 457.64062915 207.85927699 456.35479531 210 454 C208.58261511 450.74792908 206.87473588 448.68638933 204.3125 446.25 C201.59920676 443.60990711 199.02145694 440.94085848 196.5625 438.0625 C193.99334729 435.07198284 191.30682744 432.26883316 188.5 429.5 C185.07640137 426.1227445 181.88801767 422.6314612 178.76171875 418.98046875 C176.23555411 416.140634 173.52687242 413.5020125 170.796875 410.859375 C169 409 169 409 167.390625 406.765625 C166.93171875 406.18296875 166.4728125 405.6003125 166 405 C165.34 405 164.68 405 164 405 Z " fill="#1b3665" transform="translate(238,19)"/>
<path d="M0 0 C5.20095689 5.40491599 6.8849992 11.70436741 7.65625 19.03125 C6.82489463 26.65200754 4.2766307 33.95940531 -1.61328125 39.1328125 C-4.91674417 41.7191972 -7.5393919 43.67579143 -11.71875 44.46875 C-11.69554687 45.34917969 -11.67234375 46.22960937 -11.6484375 47.13671875 C-11.63039063 48.29816406 -11.61234375 49.45960938 -11.59375 50.65625 C-11.57054687 51.80480469 -11.54734375 52.95335937 -11.5234375 54.13671875 C-11.78136318 58.53693091 -12.58779951 61.33779951 -15.71875 64.46875 C-22.67527807 65.02976033 -22.67527807 65.02976033 -25.81713867 63.34057617 C-27.71875 61.46875 -27.71875 61.46875 -28.22045898 58.60546875 C-28.21860596 57.46722656 -28.21675293 56.32898438 -28.21484375 55.15625 C-28.21548828 53.91617188 -28.21613281 52.67609375 -28.21679688 51.3984375 C-28.19681641 50.10164063 -28.17683594 48.80484375 -28.15625 47.46875 C-28.16333984 46.17195313 -28.17042969 44.87515625 -28.17773438 43.5390625 C-28.11324104 33.9940485 -28.11324104 33.9940485 -26.32202148 31.60888672 C-24.32061934 30.18562678 -22.76658313 29.93278126 -20.34375 29.59375 C-17.04778022 28.92165176 -15.53814828 28.34712027 -12.65625 26.40625 C-10.35357146 22.91509222 -9.97788277 20.74835188 -10.24609375 16.62890625 C-10.65081316 14.19017044 -10.65081316 14.19017044 -12.65625 11.40625 C-16.77977408 8.79748987 -19.96530681 8.43351736 -24.71875 9.46875 C-27.99281079 11.55857603 -29.38871093 13.12287641 -30.3203125 16.921875 C-30.62036937 18.66118772 -30.87178666 20.40982019 -31.06640625 22.1640625 C-31.91556847 25.16409669 -33.04004632 25.95259403 -35.71875 27.46875 C-39.59134716 27.95282464 -41.74812652 28.21364709 -44.90234375 25.79296875 C-47.74179729 22.15968948 -47.32752955 19.10872429 -47.1640625 14.640625 C-46.11185386 7.14594594 -42.52471736 1.23484837 -36.5390625 -3.3515625 C-24.36498551 -11.24120038 -10.55368038 -9.4023698 0 0 Z " fill="#1b3665" transform="translate(333.71875,292.53125)"/>
<path d="M0 0 C3.4375 1.9375 3.4375 1.9375 6 5 C7.06256006 9.48546347 6.5480319 12.90393619 4.5 17 C1.12857828 19.69713738 -1.71532111 20.30665694 -6 20 C-9.62090756 18.42569236 -10.79255284 17.31117074 -13 14 C-13.60182519 10.90985913 -13.61143646 8.08964797 -13 5 C-9.12550287 0.36950343 -5.97119689 -1.06628516 0 0 Z " fill="#1b3665" transform="translate(317,368)"/>
</svg>
